 <svg  version="1.0" xmlns="http://www.w3.org/2000/svg"  width="209.000000pt" height="242.000000pt" viewBox="0 0 209.000000 242.000000"  preserveAspectRatio="xMidYMid meet">  <g transform="translate(0.000000,242.000000) scale(0.100000,-0.100000)" fill="#e24646" stroke="none"> <path d="M995 2386 c-22 -13 -253 -146 -513 -296 -260 -150 -471 -275 -468 -277 2 -3 136 72 298 165 518 300 672 389 706 406 33 17 34 17 85 -15 29 -18 124 -73 212 -124 259 -148 491 -282 628 -362 70 -42 130 -73 133 -70 5 5 -1017 597 -1032 597 -5 0 -27 -11 -49 -24z"/> <path d="M568 2041 l-478 -276 0 -556 0 -556 222 -129 c123 -70 318 -182 433 -249 116 -67 230 -133 255 -147 l45 -26 271 156 c149 86 364 211 477 276 l207 119 0 556 0 556 -432 250 c-238 138 -453 262 -478 276 l-45 26 -477 -276z m549 210 c55 -33 222 -129 303 -174 30 -16 67 -38 82 -49 14 -10 29 -18 32 -18 4 0 35 -17 69 -39 34 -21 87 -52 119 -69 81 -44 231 -134 246 -148 9 -10 12 -133 12 -548 l0 -535 -24 -18 c-14 -10 -61 -38 -106 -63 -84 -47 -282 -162 -361 -209 -44 -27 -46 -28 -58 -9 -9 15 -15 16 -31 8 -11 -6 -20 -17 -20 -24 0 -9 -7 -12 -20 -9 -14 4 -20 0 -20 -10 0 -24 22 -32 35 -14 7 9 15 14 19 10 4 -4 4 1 0 12 -7 18 -6 18 9 6 16 -12 17 -12 11 5 -6 16 -5 17 7 6 12 -12 10 -16 -10 -30 -52 -36 -104 -64 -97 -54 5 8 2 10 -8 6 -11 -4 -16 0 -16 10 0 9 -4 16 -9 16 -16 0 -24 -21 -12 -33 6 -6 11 -14 11 -18 0 -6 -204 -129 -214 -129 -3 0 -3 7 0 15 3 8 9 14 12 13 27 -3 34 3 22 17 -13 16 -35 21 -25 6 3 -5 0 -13 -6 -17 -6 -3 -15 -1 -19 6 -5 8 -10 9 -14 2 -3 -6 -2 -13 4 -17 13 -8 13 -25 0 -25 -6 0 -29 12 -53 27 -23 14 -98 59 -167 98 -69 40 -197 114 -285 165 -88 51 -185 106 -215 123 -30 16 -59 33 -65 37 -5 5 -32 20 -60 35 -94 52 -85 -11 -85 594 l1 536 25 18 c13 10 91 57 172 104 81 47 163 95 183 107 20 11 130 74 245 140 115 65 225 129 244 142 47 31 79 30 137 -5z"/> <path d="M860 1855 c-157 -36 -372 -155 -480 -266 -112 -116 -143 -230 -91 -333 27 -52 101 -124 193 -189 32 -22 58 -44 58 -48 0 -4 -28 -25 -63 -47 -140 -92 -197 -202 -152 -296 23 -47 62 -66 137 -66 103 0 193 54 241 145 21 40 23 46 26 65 2 19 22 10 55 -25 41 -43 86 -47 131 -11 27 22 31 22 52 9 31 -20 70 -10 110 29 l32 31 21 -26 c36 -45 118 -34 199 27 31 23 36 24 60 11 38 -19 103 0 153 45 30 27 40 46 47 84 12 66 30 79 107 73 71 -5 128 -37 144 -81 8 -24 6 -36 -10 -63 -24 -41 -25 -59 -5 -67 21 -8 56 7 81 35 68 75 17 212 -96 261 -37 16 -64 19 -153 16 -129 -3 -131 -2 -122 96 6 77 -8 106 -51 106 -53 0 -72 -17 -113 -105 -44 -94 -67 -106 -55 -29 8 55 -13 84 -61 84 -43 0 -79 -30 -93 -79 -7 -22 -23 -58 -35 -80 l-24 -41 -22 24 c-12 13 -30 39 -39 57 -9 19 -31 41 -48 50 l-32 15 75 29 c189 72 293 196 293 350 0 110 -46 170 -159 210 -53 18 -230 19 -311 0z m291 -21 c105 -31 159 -93 159 -184 0 -109 -87 -234 -208 -298 -161 -85 -381 -79 -432 11 -20 36 -7 43 29 16 60 -44 204 -37 317 17 69 32 162 117 185 169 54 118 -6 185 -167 185 -167 0 -430 -121 -553 -256 -57 -62 -75 -108 -68 -171 6 -58 39 -97 159 -195 l95 -78 74 41 c41 22 90 55 109 73 53 50 81 66 116 66 39 0 56 -19 56 -64 0 -27 3 -33 17 -29 37 9 40 -18 15 -112 -25 -95 -30 -136 -15 -120 13 13 138 298 152 345 10 32 17 39 44 44 37 7 65 -1 65 -18 0 -6 -5 -28 -11 -50 -8 -28 -7 -51 2 -89 11 -47 13 -49 26 -31 22 29 93 172 93 187 0 28 26 49 63 50 20 0 39 -2 43 -5 3 -4 1 -30 -6 -57 -10 -43 -9 -59 5 -106 10 -30 20 -55 22 -55 2 0 27 7 54 16 68 23 172 15 227 -16 107 -60 128 -200 36 -242 -37 -17 -38 -4 -3 31 26 26 30 37 25 61 -15 80 -82 120 -197 120 -109 0 -121 -5 -113 -46 3 -19 4 -45 0 -58 -14 -55 -129 -127 -169 -104 -36 20 -13 103 48 168 l23 25 -20 63 -21 63 -31 -58 c-18 -32 -39 -69 -48 -83 -12 -17 -14 -30 -8 -40 5 -8 10 -34 10 -57 0 -33 -7 -50 -30 -77 -53 -60 -180 -86 -180 -37 0 10 27 51 59 91 l59 72 -19 42 c-10 22 -19 53 -19 69 0 35 -16 35 -25 0 -12 -50 -116 -254 -147 -289 -51 -58 -87 -38 -89 48 l0 43 -25 -55 c-32 -70 -51 -90 -85 -90 -62 0 -103 115 -77 219 l14 60 -40 -25 c-31 -18 -40 -29 -38 -46 8 -67 3 -157 -11 -190 -24 -56 -91 -123 -149 -148 -72 -31 -151 -25 -185 14 -27 32 -32 110 -8 155 21 42 114 122 183 159 34 18 62 35 62 37 0 2 -44 34 -97 73 -161 114 -233 210 -218 290 32 172 294 376 580 452 88 24 214 25 286 4z m-8 -129 c76 -36 64 -118 -30 -206 -59 -56 -94 -76 -176 -104 -95 -32 -147 -32 -215 0 -30 14 -56 25 -58 25 -3 0 -9 -12 -14 -26 -8 -21 -6 -32 11 -55 34 -48 87 -69 174 -69 60 0 75 -3 75 -15 0 -8 -5 -15 -11 -15 -5 0 -30 -18 -53 -40 -50 -47 -126 -97 -159 -105 -18 -5 -41 8 -103 58 -116 94 -144 131 -146 191 -3 94 119 212 323 309 149 72 298 92 382 52z m287 -620 c0 -16 -49 -69 -57 -61 -3 2 3 20 12 40 17 36 45 49 45 21z m-210 -64 c0 -21 -57 -87 -67 -78 -3 4 4 27 16 52 21 46 51 61 51 26z"/> <path d="M927 1144 c-42 -41 -69 -110 -75 -184 -5 -72 8 -98 32 -64 16 21 84 204 93 245 7 38 -15 39 -50 3z"/> <path d="M1479 1024 c-23 -26 -52 -85 -45 -91 3 -3 17 2 31 11 25 17 39 51 33 81 -3 16 -4 16 -19 -1z"/> <path d="M589 947 c-80 -56 -103 -78 -126 -115 -27 -43 -29 -84 -8 -102 41 -34 163 51 185 129 12 42 13 121 3 120 -5 0 -29 -14 -54 -32z m28 -62 c-7 -41 -31 -75 -74 -105 -39 -27 -69 -23 -66 9 4 29 27 59 77 99 55 42 70 42 63 -3z"/> <path d="M1270 962 c0 -5 -17 -28 -37 -52 -22 -26 -29 -39 -17 -32 35 19 87 92 64 92 -5 0 -10 -4 -10 -8z"/> <path d="M1314 329 c-3 -6 0 -18 9 -26 10 -10 17 -11 21 -4 4 6 0 11 -9 11 -11 0 -15 5 -11 15 6 17 0 20 -10 4z"/> <path d="M1218 274 c-19 -10 -26 -20 -22 -32 4 -11 -1 -8 -15 8 -11 14 -21 21 -21 15 0 -15 40 -62 40 -48 0 7 5 12 11 10 6 -1 14 4 17 12 2 8 0 11 -6 7 -6 -3 -14 -1 -18 5 -4 8 -3 9 4 5 7 -4 12 -2 12 5 0 8 5 7 13 -3 10 -14 14 -15 24 -3 21 23 -7 36 -39 19z"/> <path d="M1129 223 c-1 -5 -1 -12 0 -17 1 -5 -5 -6 -14 -3 -8 4 -15 2 -15 -3 0 -6 5 -10 11 -10 5 0 7 -4 4 -10 -3 -5 -1 -10 4 -10 6 0 11 8 12 18 0 10 3 12 6 4 2 -6 9 -10 14 -6 14 9 10 24 -7 24 -8 0 -12 5 -9 10 3 6 4 10 1 10 -3 0 -7 -3 -7 -7z"/> <path d="M2005 578 c-39 -22 -83 -49 -100 -58 -105 -62 -429 -249 -585 -338 -102 -58 -187 -108 -190 -111 -10 -12 -69 -41 -82 -41 -16 0 -26 6 -188 100 -69 40 -138 80 -155 90 -495 288 -684 394 -689 389 -3 -3 999 -587 1024 -597 4 -1 130 69 281 156 151 87 382 221 514 297 263 151 250 143 244 149 -3 3 -36 -13 -74 -36z"/> </g> </svg> 